<svg xmlns="http://www.w3.org/2000/svg" xmlns:xlink="http://www.w3.org/1999/xlink" version="1.1" id="Layer_1" x="0px" y="0px" width="100px" height="32.401px" viewBox="1.119 4.433 100 32.401" enable-background="new 1.119 4.433 100 32.401" xml:space="preserve">
<path d="M79.196,9.235c-0.773,0-1.534,0.029-2.278,0.073c0.087,0.394,0.161,0.832,0.219,1.3c0.672-0.058,1.358-0.073,2.059-0.073  c7.913,0,14.337,2.453,14.337,5.475s-6.424,5.475-14.337,5.475c-0.643,0-1.271-0.015-1.899-0.058  c-1.007-0.044-1.986-0.131-2.921-0.263c-0.001,0-0.003,0-0.004,0v-7.81c0-1.072-0.324-3.665-0.334-3.713  c-0.004-0.017-0.007-0.037-0.012-0.054c-0.001,0-0.003,0-0.004,0c-0.974-3.998-4.099-3.514-10.57-3.514H17.04  c-8.043,0-10.921-0.762-10.921,7.281v14.561c0,8.043,2.88,7.281,10.921,7.281h46.413c8.043,0,10.921,0.762,10.921-7.281v-4.151  c0.001,0,0.003,0,0.004,0c0.949,0.116,1.913,0.205,2.921,0.249c0.628,0.044,1.256,0.058,1.899,0.058  c9.345,0,16.922-3.315,16.922-7.417C96.118,12.564,88.541,9.235,79.196,9.235z M71.006,20.508c-1.868-0.496-3.416-1.153-4.482-1.928  c-0.003-0.003-0.005-0.004-0.008-0.007c0.479-0.411,1.092-0.67,1.773-0.67C69.754,17.903,70.938,19.06,71.006,20.508L71.006,20.508z   M29.439,27.46h-1.821V13.809h1.821C29.439,13.809,29.439,27.46,29.439,27.46z M30.578,27.46h-0.455V13.809h0.455V27.46z   M34.445,27.46h-2.73V13.809h2.73V27.46z M37.175,27.46h-1.821V13.809h1.821V27.46z M40.36,27.46h-0.91V13.809h0.91V27.46z   M43.774,27.46h-0.455V13.809h0.455V27.46z M46.276,27.46h-1.821V13.809h1.821V27.46z M51.509,27.46h-1.366V13.809h1.366V27.46z   M52.874,27.46h-0.455V13.809h0.455V27.46z M65.601,21.06c0.001,0,0.001,0.001,0.003,0.001c1.167,0.701,2.614,1.3,4.277,1.781  c-0.45,0.324-0.997,0.521-1.593,0.521C66.927,23.364,65.807,22.364,65.601,21.06z"/>
</svg>